<svg id="_3x3" data-name="3x3" xmlns="http://www.w3.org/2000/svg" viewBox="0 0 128 56"><defs><style>.cls-1{fill:#fff;}</style></defs><title>3x3</title><polygon class="cls-1" points="49.3 30.75 35.98 42.89 31.54 42.89 28.55 55.84 44.37 55.84 57.58 43.8 49.3 30.75"/><polygon class="cls-1" points="82.87 0.16 69.59 12.16 77.86 25.21 91.25 13.11 96.42 13.11 99.41 0.16 82.87 0.16"/><polygon class="cls-1" points="84.45 42.89 57.27 0 40.72 0 37.7 13.11 42.78 13.11 69.97 56 86.51 56 89.54 42.89 84.45 42.89"/><polygon class="cls-1" points="0 47.74 6.68 55.92 24.49 55.92 27.48 42.97 20.96 42.97 22.9 34.66 31.36 34.66 34.49 20.86 25.94 20.86 27.76 13.19 33.55 13.19 36.58 0.08 19.41 0.08 8.97 8.17 5.97 20.81 11.53 27.61 3.04 34.55 0 47.74"/><polygon class="cls-1" points="128 8.26 121.32 0.08 103.51 0.08 100.52 13.03 107.04 13.03 105.23 20.58 96.78 20.58 93.64 34.38 102.19 34.38 100.24 42.81 93.62 42.81 90.59 55.92 108.59 55.92 119.03 47.83 122.16 34.43 116.6 27.63 125.09 20.69 128 8.26"/></svg>