<?xml version="1.0" encoding="utf-8"?>
<!-- Generator: Adobe Illustrator 21.0.2, SVG Export Plug-In . SVG Version: 6.00 Build 0)  -->
<svg version="1.1" id="Layer_1" xmlns:sketch="http://www.bohemiancoding.com/sketch/ns"
	 xmlns="http://www.w3.org/2000/svg" xmlns:xlink="http://www.w3.org/1999/xlink" x="0px" y="0px" viewBox="0 0 200 42.7"
	 style="enable-background:new 0 0 200 42.7;" xml:space="preserve">
<title>futurice-logo</title>
<desc>Created with Sketch.</desc>
<g sketch:type="MSPage">
	<g sketch:type="MSLayerGroup">
		<g sketch:type="MSShapeGroup">
			<path d="M132.4,13.7h7.8v28.4h-7.8V13.7L132.4,13.7z"/>
			<path d="M41.3,13.7v15.4c0,3.8-1.7,6-5.2,6l0,0c-3.5,0-5.2-2.2-5.2-6V13.7h-7.9V31c0,7.3,5.4,11.6,13.1,11.6S49.4,38.3,49.4,31
				V13.7H41.3L41.3,13.7z"/>
			<path d="M96.1,13.7v15.4c0,3.8-1.7,6-5.2,6l0,0c-3.5,0-5.2-2.2-5.2-6V13.7h-7.9V31c0,7.3,5.4,11.6,13.1,11.6s13.1-4.3,13.1-11.6
				V13.7H96.1L96.1,13.7z"/>
			<circle cx="136.2" cy="5" r="5"/>
			<path d="M108.8,13.7v8.5v19.9h7.8V20.7h10.9v-7h-10.9H108.8z"/>
			<path d="M191.4,33.3c-1.4,1.6-3.4,2.6-5.7,2.6h-0.1c-4.1,0-6.6-2-7.6-5.2H200v-2.9c0-8.2-6-14.7-14.6-14.7
				c-8.2,0-14.8,6.6-14.8,14.8s6.1,14.8,15,14.8h0.2c4.6,0,8.2-1.7,10.7-4.3L191.4,33.3L191.4,33.3z M185.4,20
				c3.3,0,5.8,1.5,6.8,4.5h-13.8C179.6,21.8,182.1,20,185.4,20L185.4,20z"/>
			<path d="M164,33.3c-1.3,1.2-3.1,2-5,2h-0.2c-4-0.1-7.1-3.3-7.1-7.4c0-4,3.1-7.3,7.1-7.4h0.2c2.1,0,3.9,0.9,5.3,2.4l5.4-5.4
				c-2.6-2.7-6.3-4.4-10.7-4.4h-0.1c-8.1,0.1-14.6,6.6-14.6,14.7s6.5,14.7,14.6,14.7h0.1c4.2,0,7.8-1.6,10.4-4.1L164,33.3L164,33.3z
				"/>
			<path d="M61.9,13.7V3.1h-7.8v10.6v7v9.1c0,9.3,3,12.4,12,12.4h1.1h5.6v-7.2h-5.6c-4.8,0-5.4-0.7-5.4-5.1v-9h5.4h5.6v-1v-5.1v-0.9
				C72.8,13.7,61.9,13.7,61.9,13.7L61.9,13.7z"/>
			<path d="M7.8,11.9c0-2.7,1.6-4.3,3.9-4.3c1.4,0,2.5,0.8,3.1,1.6l4.7-4.7C17,1.1,13.8,0,10.6,0C4.9,0,0.1,5.1,0,11.8v30.4h7.8
				V20.5h10.1v-6.8H7.8V11.9L7.8,11.9z"/>
		</g>
	</g>
</g>
</svg>
