<?xml version="1.0" encoding="utf-8"?>
<!-- Generator: Adobe Illustrator 21.0.2, SVG Export Plug-In . SVG Version: 6.00 Build 0)  -->
<svg version="1.1" id="Layer_1" xmlns="http://www.w3.org/2000/svg" xmlns:xlink="http://www.w3.org/1999/xlink" x="0px" y="0px"
	 viewBox="0 0 659.5 202" style="enable-background:new 0 0 659.5 202;" xml:space="preserve">
<g>
	<polyline points="116.1,108 0,108 0,135.4 30.1,135.4 30.1,199 85.9,199 85.9,135.4 116.1,135.4 116.1,108 	"/>
	<path d="M115.8,108l52.6,51.1V199H224v-39.8l52.6-51.1h-62.7l-10.9,14c-2.4,3.1-4.5,6.3-6.4,9.7c-1.7-3-3.6-5.8-5.6-8.6l-11.8-15.1
		L115.8,108"/>
	<path d="M329.6,132.6h7.3c2.1,0,17.2-0.8,17.2,7.5c0,2.3-1.3,3.9-2.1,4.6c-3.4,3.1-9.2,3.2-14.8,3.2h-7.5L329.6,132.6 M277.7,108
		V199h52v-33.4l28.1,33.4h58.8l-36.7-36.4c4.7-1,8.2-1.9,12.2-3.6c6.9-3,15.9-8.8,15.9-20.6c0-9.4-6-14.9-9.9-17.9
		c-11-8.6-26.8-11.4-44.2-12.1c-4.5-0.2-9-0.2-13.5-0.2L277.7,108"/>
	<path d="M656.2,114.2c-6.9-1.9-19.3-6.1-38.4-7.9c-6.9-0.6-12.2-0.8-14.8-0.8c-23,0-46.4,5.3-57.1,18.4c-1.9,2.3-5.6,7.3-5.6,14.4
		c0,16.2,20,21.8,29,23.7c6,1.2,15.9,2.5,22.3,3.1c4.1,0.5,10.9,1,10.9,4.8c0,2.8-4.9,5.5-14.4,5.5c-13.5,0-26.6-5.4-37.1-9.8
		l-17.6,25C543.7,194,565,201,595.7,201c18,0,32.6-2.4,46.1-9.7c15.7-8.6,17.6-18.2,17.6-23.2c0-6.2-2.8-18.4-28.1-24.3
		c-6.4-1.4-17.6-3-24.2-3.9c-4.3-0.5-11.4-1-11.4-4.6c0-2.8,4.1-4.5,12.4-4.6c12,0,21.9,3.5,32,7.1L656.2,114.2"/>
	<polyline points="422.1,108 422.1,199 525.4,199 525.4,173.6 473.6,173.6 473.6,165.1 520,165.1 520,140.9 473.6,140.9 
		473.6,133.4 523.8,133.4 523.8,108 422.1,108 	"/>
	<path d="M23.8,35.5v45.1H0V14.1h74.7c12.9,0,18.5,1.4,25.2,6.5c6.5,5,8.4,13.2,8.6,19.9c0,0.2,0.1,40.1,0,40.1H84.7v-23
		c-0.2-7.1,1.2-15.5-2.3-19.3c-3.7-4-9.7-2.5-17.3-2.7C64.9,35.5,23.9,35.5,23.8,35.5"/>
	<rect x="373.1" y="14" width="23.8" height="66.5"/>
	<path d="M454.8,34.6c-23.8,0-26.3,6.5-26.3,14.1c0,6.9,5.1,12.4,25.2,12.4l54.4,0.1l-16,19.8c0.1,0-52-0.1-52.1-0.1
		C414,79.9,405.4,65,405.3,46.9c0-17,11.5-32.5,45.1-32.7l90.6,0.1l-0.1,66.4l-23.7,0.1V34.7C517.2,34.7,455,34.6,454.8,34.6"/>
	<path d="M574.8,35.3v45.1H551V13.9h74.7c12.9,0,18.6,1.4,25.2,6.5c6.5,5,8.4,13.2,8.6,19.9c0,0.2,0,40.1,0,40.1h-23.8V57.4
		c-0.2-7.1,1.2-15.5-2.3-19.3c-3.7-4-9.7-2.5-17.2-2.7C615.9,35.3,574.8,35.3,574.8,35.3"/>
	<path d="M220.5,13.9H162c-25.7,0-46.6,14.9-46.6,33.3c0,18.4,20.9,33.3,46.6,33.3h58.6c25.8,0,46.6-14.9,46.6-33.3
		C267.2,28.8,246.3,13.9,220.5,13.9z M211.7,60.7h-41c-18,0-32.6-0.6-32.6-13.5c0-12.9,14.6-13.1,32.6-13.1h41
		c18,0,32.6,0.3,32.6,13.1C244.4,60,229.8,60.7,211.7,60.7z"/>
	<rect x="273.9" y="1" width="23.8" height="79.5"/>
	<polyline points="299.7,41.6 335.8,14.1 369.7,14.3 329.6,42 369.3,80.6 337.2,80.6 299.7,41.6 	"/>
</g>
</svg>
