<?xml version="1.0" encoding="UTF-8"?>
<!-- Generator: Adobe Illustrator 12.0.1, SVG Export Plug-In . SVG Version: 6.00 Build 51448)  -->
<!DOCTYPE svg PUBLIC "-//W3C//DTD SVG 1.0//EN" "http://www.w3.org/TR/2001/REC-SVG-20010904/DTD/svg10.dtd" [
	<!ENTITY ns_svg "http://www.w3.org/2000/svg">
	<!ENTITY ns_xlink "http://www.w3.org/1999/xlink">
]>
<svg version="1.0" id="Layer_1" xmlns="http://www.w3.org/2000/svg" xmlns:xlink="http://www.w3.org/1999/xlink" width="425.196" height="87.455" viewBox="0 0 425.196 87.455" overflow="visible" enable-background="new 0 0 425.196 87.455" xml:space="preserve">
<g>
	<polygon fill="#282828" points="23.493,38.611 23.26,38.611 23.26,1.744 0,1.744 0,85.71 23.26,85.71 23.26,41.053 23.493,41.053    51.171,85.71 80.014,85.71 48.729,38.728 77.688,1.744 50.125,1.744 23.493,38.611  "/>
	<polygon fill="#282828" points="153.246,85.71 153.246,69.429 112.541,69.429 112.541,51.637 149.989,51.637 149.989,35.355    112.541,35.355 112.541,18.026 153.246,18.026 153.246,1.744 89.281,1.744 89.281,85.71 153.246,85.71  "/>
	<path fill="#282828" d="M234.886,26.4C236.282,6.164,218.489,0,201.162,0c-17.562,0-35.006,5.466-35.937,25.354   c0,9.071,4.187,16.746,12.677,20.466c18.258,8.026,35.471,5.584,35.471,16.981c0,5.582-6.861,8.372-12.211,8.372   c-8.374,0-14.188-4.302-14.072-12.21h-23.26c0.349,22.794,17.561,28.491,37.099,28.491c19.42,0,36.867-8.372,36.867-26.05   c0-22.677-20.47-24.073-34.541-27.678c-6.164-1.628-13.607-3.605-13.607-9.77c0-4.187,4.652-7.675,10.001-7.675   c3.954,0,6.978,0.93,8.955,2.674c2.094,1.744,3.14,4.187,3.024,7.443H234.886L234.886,26.4z"/>
	<polygon fill="#282828" points="275.44,38.611 275.208,38.611 275.208,1.744 251.948,1.744 251.948,85.71 275.208,85.71    275.208,41.053 275.44,41.053 303.121,85.71 331.962,85.71 300.677,38.728 329.636,1.744 302.072,1.744 275.44,38.611  "/>
	<path fill-rule="evenodd" clip-rule="evenodd" fill="#282828" d="M400.773,44.076c0,12.445-3.256,27.097-19.071,27.097   c-15.817,0-19.073-14.652-19.073-27.097c0-13.141,3.256-27.794,19.073-27.794C397.518,16.282,400.773,30.936,400.773,44.076   L400.773,44.076z M381.702,87.455c27.794,0,43.494-16.049,43.494-43.726c0-27.679-15.7-43.729-43.494-43.729   c-27.796,0-43.496,16.049-43.496,43.729C338.206,71.406,353.906,87.455,381.702,87.455L381.702,87.455z"/>
</g>
</svg>