<?xml version="1.0" encoding="utf-8"?>
<!-- Generator: Adobe Illustrator 19.0.0, SVG Export Plug-In . SVG Version: 6.00 Build 0)  -->
<!DOCTYPE svg PUBLIC "-//W3C//DTD SVG 1.1//EN" "http://www.w3.org/Graphics/SVG/1.1/DTD/svg11.dtd">
<svg version="1.1" id="Layer_1" xmlns="http://www.w3.org/2000/svg" xmlns:xlink="http://www.w3.org/1999/xlink" x="0px" y="0px"
	 viewBox="0 0 64 64" style="enable-background:new 0 0 64 64;" xml:space="preserve">
<style type="text/css">
	.st0{fill:#00ABFF;}
</style>
<path id="XMLID_10_" class="st0" d="M32,0C14.4,0,0,14.4,0,32c0,17.6,14.3,32,32,32c17.7,0,32-14.3,32-32C64,14.4,49.7,0,32,0z
	 M60.2,35.3c-0.4,3.2-1.3,6.3-2.7,9.3c-0.2,0.4-0.3,0.5-0.7,0.2c-0.7-0.4-1.5-0.2-1.8,0.4c-0.4,0.6-0.2,1.3,0.6,1.8
	c0.4,0.3,0.3,0.4,0.1,0.7c-2.1,3.1-4.7,5.7-7.9,7.9c-0.3,0.2-0.5,0.3-0.7-0.1c-0.5-0.8-1.1-0.9-1.8-0.6c-0.6,0.4-0.8,1.1-0.4,1.8
	c0.2,0.4,0.2,0.5-0.2,0.7c-3.3,1.6-6.9,2.6-10.5,2.9c-0.4,0-0.5-0.1-0.5-0.5c0-0.6,0-1.1,0-1.7c0-1-0.7-1.6-1.5-1.7
	c-0.9,0-1.5,0.7-1.6,1.7c0,0.3,0,0.5,0,0.8c0,1.4,0,1.4-1.3,1.2c-3.4-0.3-6.6-1.3-9.7-2.8c-0.4-0.2-0.5-0.3-0.3-0.7
	c0.4-0.7,0.2-1.4-0.4-1.8c-0.6-0.3-1.3-0.2-1.7,0.5c-0.3,0.4-0.4,0.4-0.8,0.2c-3.1-2.1-5.7-4.7-7.9-7.9c-0.2-0.3-0.3-0.5,0.1-0.7
	c0.7-0.5,0.9-1.2,0.5-1.8c-0.4-0.6-1.1-0.8-1.8-0.4c-0.4,0.2-0.5,0-0.7-0.3C4.9,41.3,4,37.8,3.7,34.1c0-0.4,0-0.6,0.5-0.6
	c0.6,0,1.1,0,1.7,0c1,0,1.6-0.7,1.6-1.5c0-0.9-0.7-1.5-1.7-1.6c-0.5,0-1.1,0-1.6,0c-0.4,0-0.6-0.1-0.5-0.5c0.3-3.7,1.3-7.2,2.9-10.5
	C6.7,19,6.9,19,7.2,19.1c0.8,0.4,1.5,0.3,1.8-0.3c0.4-0.6,0.2-1.3-0.6-1.8c-0.4-0.2-0.3-0.4-0.1-0.7c2.1-3.2,4.8-5.8,7.9-7.9
	c0.4-0.2,0.5-0.2,0.7,0.2c0.5,0.7,1.2,0.9,1.8,0.5c0.6-0.4,0.8-1.1,0.4-1.8C19,6.9,19,6.8,19.4,6.6c3.3-1.6,6.8-2.5,10.5-2.9
	c0.4,0,0.6,0.1,0.5,0.5c0,0.6,0,1.1,0,1.7c0,1,0.7,1.6,1.6,1.6c0.9,0,1.5-0.7,1.5-1.6c0-0.6,0-1.2,0-1.8c0-0.4,0.1-0.5,0.5-0.4
	c3.8,0.3,7.3,1.3,10.7,2.9C45,6.8,45,6.9,44.9,7.2c-0.4,0.9-0.3,1.5,0.3,1.9c0.6,0.4,1.3,0.2,1.8-0.6c0.2-0.3,0.3-0.3,0.6-0.1
	c3.2,2.1,5.9,4.8,8,8c0.2,0.3,0.1,0.4-0.2,0.6c-0.8,0.5-1,1.2-0.6,1.8c0.4,0.6,1,0.8,1.8,0.3c0.5-0.3,0.5,0,0.7,0.3
	c1.6,3.3,2.6,6.8,2.9,10.5c0,0.4,0,0.5-0.4,0.5c-0.6,0-1.1,0-1.7,0c-1,0-1.7,0.7-1.7,1.6c0,0.9,0.7,1.5,1.6,1.5c0.1,0,0.3,0,0.4,0
	C60.3,33.6,60.4,33.6,60.2,35.3z"/>
<path id="XMLID_6_" class="st0" d="M33.7,34.2c0-0.1,0-0.2,0-0.3c0-6,0-11.9,0-17.9c0-0.2,0-0.3,0-0.5c-0.1-0.6-0.5-1-1-1.1
	c-0.6-0.1-1,0.1-1.3,0.5c-0.3,0.4-0.2,0.8-0.2,1.2c0,5.8,0,11.5,0,17.3c0,0.1,0,0.1,0,0.2c-0.3,0.2-0.6,0.5-0.7,0.9
	c-3.1,0.4-6.2,0.7-9.4,1.1c-0.1,0-0.2,0-0.4,0.1c-0.4,0.1-0.6,0.5-0.6,1.1c0,0.6,0.3,1,0.7,1.3c0.3,0.3,0.7,0.2,1,0.1
	c3.3-0.4,6.6-0.8,9.9-1.1c0.1,0,0.3,0,0.4,0c1,0,1.9-0.8,1.9-1.9C34,34.9,33.9,34.5,33.7,34.2z"/>
</svg>
