<?xml version="1.0" encoding="utf-8"?>
<!-- Generator: Adobe Illustrator 19.0.0, SVG Export Plug-In . SVG Version: 6.00 Build 0)  -->
<!DOCTYPE svg PUBLIC "-//W3C//DTD SVG 1.1//EN" "http://www.w3.org/Graphics/SVG/1.1/DTD/svg11.dtd">
<svg version="1.1" id="Layer_1" xmlns="http://www.w3.org/2000/svg" xmlns:xlink="http://www.w3.org/1999/xlink" x="0px" y="0px"
	 viewBox="706 58 360 77" style="enable-background:new 706 58 360 77;" xml:space="preserve">
<style type="text/css">
	.st0{fill:#349C4A;}
</style>
<g id="Layer_2">
	<path class="st0" d="M944.4,82.7h14v51.2h-14V82.7z"/>
	<path class="st0" d="M780.4,82.7v27.6c0,6.8-3.1,10.8-9.3,10.8l0,0l0,0c-6.2,0-9.3-4-9.3-10.8V82.7h-14.2v31.2
		c0,13.2,9.8,21,23.7,21c13.9,0,23.7-7.8,23.7-21V82.7H780.4z"/>
	<path class="st0" d="M878.9,82.7v27.6c0,6.8-3.1,10.8-9.3,10.8l0,0l0,0c-6.2,0-9.3-4-9.3-10.8V82.7h-14.2v31.2
		c0,13.2,9.8,21,23.7,21s23.7-7.8,23.7-21V82.7C893.4,82.7,878.9,82.7,878.9,82.7z"/>
	<circle class="st0" cx="951.3" cy="67" r="8.9"/>
	<g>
		<polygon class="st0" points="901.9,82.7 901.9,98.1 901.9,133.9 915.9,133.9 915.9,95.3 935.5,95.3 935.5,82.7 915.9,82.7 		"/>
	</g>
	<path class="st0" d="M1050.6,117.9c-2.6,2.8-6.1,4.7-10.2,4.7h-0.2c-7.4,0-11.9-3.7-13.6-9.3h39.4v-5.1c0-14.7-10.8-26.5-26.4-26.5
		c-14.7,0-26.7,11.9-26.7,26.7s11.1,26.7,26.9,26.7c0.2,0,0.2,0,0.3,0c8.2,0,14.7-3.1,19.3-7.8L1050.6,117.9z M1039.8,93.9
		c6,0,10.3,2.7,12.2,8.1h-24.8C1029.3,97.2,1033.8,93.9,1039.8,93.9z"/>
	<path class="st0" d="M1001.2,117.9c-2.4,2.2-5.5,3.7-9.1,3.7c-0.2,0-0.2,0-0.3,0c-7.2-0.2-12.8-6-12.8-13.3
		c0-7.2,5.5-13.2,12.8-13.3c0.2,0,0.2,0,0.3,0c3.8,0,7.1,1.7,9.5,4.2l9.6-9.6c-4.7-5-11.3-8-19.3-8h-0.1
		c-14.6,0.1-26.2,11.9-26.2,26.5s11.6,26.5,26.2,26.5h0.1c7.5,0,14-2.8,18.7-7.4L1001.2,117.9z"/>
	<path class="st0" d="M817.4,82.7V63.6h-14v19v12.6v16.3c0,16.7,5.4,22.2,21.5,22.2h2h10v-13h-10c-8.7,0-9.6-1.3-9.6-9.2V95.4h9.6
		h10v-1.7v-9.2v-1.6C837,82.7,817.4,82.7,817.4,82.7z"/>
	<path class="st0" d="M720,79.3c0-4.8,3-7.6,6.9-7.6c2.5,0,4.5,1.4,5.5,3l8.5-8.5c-4.4-6.1-10.2-8.1-15.9-8.1
		c-10.3,0-18.9,9.1-19.1,21.1v54.7h14v-39h18.1V82.7H720V79.3z"/>
</g>
</svg>
