<?xml version="1.0" encoding="utf-8"?>
<!-- Generator: Adobe Illustrator 19.0.0, SVG Export Plug-In . SVG Version: 6.00 Build 0)  -->
<!DOCTYPE svg PUBLIC "-//W3C//DTD SVG 1.1//EN" "http://www.w3.org/Graphics/SVG/1.1/DTD/svg11.dtd">
<svg version="1.1" id="Layer_1" xmlns="http://www.w3.org/2000/svg" xmlns:xlink="http://www.w3.org/1999/xlink" x="0px" y="0px"
	 viewBox="706 77 360 39" style="enable-background:new 706 77 360 39;" xml:space="preserve">
<style type="text/css">
	.st0{fill:#0055FF;}
</style>
<path class="st0" d="M725.1,115.6c10.5,0,19.1-8.6,19.1-19.1C733.6,96.5,725.1,105,725.1,115.6"/>
<path class="st0" d="M706,96.5c0,10.5,8.5,19.1,19.1,19.1C725.1,105,716.5,96.5,706,96.5"/>
<path class="st0" d="M725.1,98.2c5.7,0,10.4-4.7,10.4-10.4c0-5.8-4.7-10.4-10.4-10.4c-5.7,0-10.4,4.7-10.4,10.4
	C714.7,93.6,719.3,98.2,725.1,98.2"/>
<g>
	<path class="st0" d="M797.8,114.9l-6.2-25h-0.1l-6.1,25h-8.2l-9.7-36.7h8.1l5.8,25h0.1l6.4-25h7.6l6.3,25.3h0.1l6-25.3h7.9
		l-9.9,36.7H797.8z"/>
</g>
<g>
	<path class="st0" d="M815.8,95.8c0.7-1.7,1.6-3.2,2.8-4.4c1.2-1.2,2.6-2.2,4.3-2.8c1.7-0.7,3.6-1,5.7-1c2.1,0,4,0.3,5.7,1
		s3.1,1.6,4.3,2.8c1.2,1.2,2.1,2.7,2.8,4.4c0.7,1.7,1,3.7,1,5.8c0,2.1-0.3,4-1,5.8c-0.7,1.7-1.6,3.2-2.8,4.4
		c-1.2,1.2-2.6,2.2-4.3,2.8c-1.7,0.7-3.6,1-5.7,1c-2.1,0-4-0.3-5.7-1c-1.7-0.7-3.1-1.6-4.3-2.8c-1.2-1.2-2.1-2.7-2.8-4.4
		c-0.7-1.7-1-3.6-1-5.8C814.8,99.5,815.1,97.5,815.8,95.8z M822.4,104.7c0.2,1,0.6,1.9,1.1,2.7c0.5,0.8,1.2,1.4,2,1.9
		c0.8,0.5,1.9,0.7,3.1,0.7c1.2,0,2.3-0.2,3.1-0.7c0.8-0.5,1.5-1.1,2-1.9c0.5-0.8,0.8-1.7,1.1-2.7c0.2-1,0.3-2,0.3-3.1
		c0-1.1-0.1-2.1-0.3-3.1c-0.2-1-0.6-1.9-1.1-2.7c-0.5-0.8-1.2-1.4-2-1.9c-0.8-0.5-1.9-0.7-3.1-0.7c-1.2,0-2.3,0.2-3.1,0.7
		c-0.8,0.5-1.5,1.1-2,1.9c-0.5,0.8-0.8,1.7-1.1,2.7c-0.2,1-0.3,2.1-0.3,3.1C822.1,102.7,822.2,103.7,822.4,104.7z"/>
</g>
<g>
	<path class="st0" d="M853.3,88.3v4.9h0.1c0.3-0.8,0.8-1.6,1.4-2.3c0.6-0.7,1.3-1.3,2-1.8c0.8-0.5,1.6-0.9,2.4-1.2
		c0.9-0.3,1.7-0.4,2.7-0.4c0.5,0,1,0.1,1.6,0.3v6.8c-0.3-0.1-0.8-0.1-1.2-0.2c-0.5-0.1-0.9-0.1-1.4-0.1c-1.3,0-2.5,0.2-3.4,0.7
		c-0.9,0.4-1.7,1.1-2.2,1.8c-0.6,0.8-1,1.7-1.2,2.7c-0.2,1-0.4,2.1-0.4,3.3v12h-7.3V88.3H853.3z"/>
</g>
<g>
	<path class="st0" d="M874.2,78.1v36.7h-7.3V78.1H874.2z"/>
</g>
<g>
	<path class="st0" d="M898.2,111.5c-0.9,1.4-2,2.5-3.4,3.1c-1.4,0.6-3,1-4.7,1c-2,0-3.7-0.4-5.2-1.2c-1.5-0.8-2.8-1.8-3.7-3.1
		c-1-1.3-1.7-2.8-2.2-4.6c-0.5-1.7-0.7-3.5-0.7-5.4c0-1.8,0.2-3.5,0.7-5.2c0.5-1.7,1.2-3.1,2.2-4.4c1-1.3,2.2-2.3,3.7-3.1
		c1.5-0.8,3.2-1.2,5.1-1.2c1.6,0,3.1,0.3,4.5,1c1.4,0.7,2.5,1.7,3.4,3h0.1V78.1h7.3v36.7h-6.9v-3.4H898.2z M897.9,98.3
		c-0.2-1-0.6-1.9-1.1-2.7c-0.5-0.8-1.1-1.4-1.9-1.9c-0.8-0.5-1.8-0.7-3-0.7s-2.2,0.2-3,0.7c-0.8,0.5-1.5,1.1-2,1.9
		c-0.5,0.8-0.9,1.7-1.1,2.7c-0.2,1-0.3,2.1-0.3,3.2c0,1,0.1,2.1,0.4,3.1c0.2,1,0.6,1.9,1.2,2.8c0.5,0.8,1.2,1.5,2,2
		c0.8,0.5,1.8,0.7,2.9,0.7c1.2,0,2.2-0.2,3-0.7c0.8-0.5,1.4-1.1,1.9-1.9c0.5-0.8,0.8-1.7,1-2.8c0.2-1,0.3-2.1,0.3-3.2
		C898.2,100.4,898.1,99.3,897.9,98.3z"/>
</g>
<g>
	<path class="st0" d="M917.7,88.3v4.9h0.1c0.3-0.8,0.8-1.6,1.4-2.3c0.6-0.7,1.3-1.3,2-1.8c0.8-0.5,1.6-0.9,2.4-1.2
		c0.9-0.3,1.7-0.4,2.7-0.4c0.5,0,1,0.1,1.6,0.3v6.8c-0.3-0.1-0.8-0.1-1.2-0.2c-0.5-0.1-0.9-0.1-1.4-0.1c-1.3,0-2.5,0.2-3.4,0.7
		c-0.9,0.4-1.7,1.1-2.2,1.8c-0.6,0.8-1,1.7-1.2,2.7c-0.2,1-0.4,2.1-0.4,3.3v12h-7.3V88.3H917.7z"/>
</g>
<g>
	<path class="st0" d="M938.4,108.5c1.1,1.1,2.7,1.6,4.7,1.6c1.5,0,2.7-0.4,3.8-1.1c1.1-0.7,1.7-1.5,2-2.3h6.4
		c-1,3.2-2.6,5.5-4.7,6.8s-4.7,2.1-7.7,2.1c-2.1,0-4-0.3-5.7-1c-1.7-0.7-3.1-1.6-4.3-2.9c-1.2-1.2-2.1-2.7-2.7-4.4
		c-0.6-1.7-1-3.6-1-5.7c0-2,0.3-3.8,1-5.6c0.7-1.7,1.6-3.2,2.8-4.5c1.2-1.3,2.6-2.2,4.3-3c1.7-0.7,3.5-1.1,5.5-1.1
		c2.3,0,4.2,0.4,5.9,1.3c1.7,0.9,3.1,2.1,4.1,3.5c1.1,1.5,1.9,3.2,2.3,5c0.5,1.9,0.7,3.9,0.5,5.9h-19.2
		C936.7,105.7,937.3,107.4,938.4,108.5z M946.6,94.5c-0.9-1-2.2-1.4-4-1.4c-1.2,0-2.1,0.2-2.9,0.6c-0.8,0.4-1.4,0.9-1.9,1.5
		c-0.5,0.6-0.8,1.2-1,1.9c-0.2,0.7-0.3,1.2-0.3,1.7h11.9C948.1,96.9,947.5,95.4,946.6,94.5z"/>
</g>
<g>
	<path class="st0" d="M959.8,96.4c0.1-1.7,0.5-3.1,1.3-4.3c0.8-1.1,1.7-2,2.9-2.7c1.2-0.7,2.5-1.2,3.9-1.5c1.5-0.3,2.9-0.4,4.4-0.4
		c1.3,0,2.7,0.1,4.1,0.3c1.4,0.2,2.6,0.6,3.8,1.1c1.1,0.5,2.1,1.3,2.8,2.3c0.7,1,1.1,2.3,1.1,3.9v13.8c0,1.2,0.1,2.3,0.2,3.4
		c0.1,1.1,0.4,1.9,0.7,2.5h-7.4c-0.1-0.4-0.2-0.8-0.3-1.3c-0.1-0.4-0.1-0.9-0.2-1.3c-1.2,1.2-2.5,2-4.1,2.5
		c-1.6,0.5-3.2,0.7-4.8,0.7c-1.3,0-2.5-0.2-3.6-0.5c-1.1-0.3-2.1-0.8-2.9-1.4c-0.8-0.7-1.5-1.5-1.9-2.5c-0.5-1-0.7-2.2-0.7-3.5
		c0-1.5,0.3-2.8,0.8-3.7c0.5-1,1.2-1.8,2.1-2.3c0.8-0.6,1.8-1,2.9-1.3c1.1-0.3,2.2-0.5,3.3-0.7c1.1-0.2,2.2-0.3,3.2-0.4
		c1.1-0.1,2-0.3,2.8-0.5c0.8-0.2,1.5-0.5,2-0.9c0.5-0.4,0.7-1,0.7-1.7c0-0.8-0.1-1.4-0.4-1.9c-0.3-0.5-0.6-0.8-1-1.1
		c-0.4-0.3-0.9-0.4-1.5-0.5c-0.6-0.1-1.2-0.1-1.8-0.1c-1.4,0-2.6,0.3-3.4,0.9c-0.8,0.6-1.3,1.6-1.4,3.1H959.8z M976.6,101.8
		c-0.3,0.3-0.7,0.5-1.2,0.6c-0.5,0.2-1,0.3-1.5,0.4c-0.5,0.1-1.1,0.2-1.7,0.3c-0.6,0.1-1.2,0.2-1.7,0.3c-0.5,0.1-1.1,0.2-1.6,0.4
		c-0.5,0.2-1,0.4-1.4,0.7c-0.4,0.3-0.7,0.7-1,1.1c-0.2,0.4-0.4,1-0.4,1.7c0,0.7,0.1,1.2,0.4,1.6c0.2,0.4,0.6,0.8,1,1.1
		c0.4,0.3,0.9,0.4,1.4,0.5c0.5,0.1,1.1,0.2,1.7,0.2c1.4,0,2.6-0.2,3.3-0.7c0.8-0.5,1.4-1.1,1.7-1.7c0.4-0.7,0.6-1.3,0.7-2
		c0.1-0.7,0.1-1.2,0.1-1.6V101.8z"/>
</g>
<g>
	<path class="st0" d="M1007.8,111.5c-0.9,1.4-2,2.5-3.4,3.1s-3,1-4.7,1c-2,0-3.7-0.4-5.2-1.2c-1.5-0.8-2.8-1.8-3.7-3.1
		c-1-1.3-1.7-2.8-2.2-4.6c-0.5-1.7-0.7-3.5-0.7-5.4c0-1.8,0.2-3.5,0.7-5.2c0.5-1.7,1.2-3.1,2.2-4.4c1-1.3,2.2-2.3,3.7-3.1
		c1.5-0.8,3.2-1.2,5.1-1.2c1.6,0,3.1,0.3,4.5,1c1.4,0.7,2.5,1.7,3.4,3h0.1V78.1h7.3v36.7h-6.9v-3.4H1007.8z M1007.5,98.3
		c-0.2-1-0.6-1.9-1.1-2.7c-0.5-0.8-1.1-1.4-1.9-1.9c-0.8-0.5-1.8-0.7-3-0.7s-2.2,0.2-3,0.7c-0.8,0.5-1.5,1.1-2,1.9
		c-0.5,0.8-0.9,1.7-1.1,2.7c-0.2,1-0.3,2.1-0.3,3.2c0,1,0.1,2.1,0.4,3.1s0.6,1.9,1.2,2.8c0.5,0.8,1.2,1.5,2,2
		c0.8,0.5,1.8,0.7,2.9,0.7c1.2,0,2.2-0.2,3-0.7c0.8-0.5,1.4-1.1,1.9-1.9c0.5-0.8,0.8-1.7,1-2.8c0.2-1,0.3-2.1,0.3-3.2
		C1007.8,100.4,1007.7,99.3,1007.5,98.3z"/>
</g>
<g>
	<path class="st0" d="M1027.9,108.5c1.1,1.1,2.7,1.6,4.7,1.6c1.5,0,2.7-0.4,3.8-1.1c1.1-0.7,1.7-1.5,2-2.3h6.4
		c-1,3.2-2.6,5.5-4.7,6.8c-2.1,1.4-4.7,2.1-7.7,2.1c-2.1,0-4-0.3-5.7-1c-1.7-0.7-3.1-1.6-4.3-2.9c-1.2-1.2-2.1-2.7-2.7-4.4
		c-0.6-1.7-1-3.6-1-5.7c0-2,0.3-3.8,1-5.6c0.7-1.7,1.6-3.2,2.8-4.5c1.2-1.3,2.6-2.2,4.3-3c1.7-0.7,3.5-1.1,5.5-1.1
		c2.3,0,4.2,0.4,5.9,1.3c1.7,0.9,3.1,2.1,4.1,3.5c1.1,1.5,1.9,3.2,2.3,5c0.5,1.9,0.7,3.9,0.5,5.9h-19.2
		C1026.2,105.7,1026.8,107.4,1027.9,108.5z M1036.1,94.5c-0.9-1-2.2-1.4-4-1.4c-1.2,0-2.1,0.2-2.9,0.6c-0.8,0.4-1.4,0.9-1.9,1.5
		c-0.5,0.6-0.8,1.2-1,1.9c-0.2,0.7-0.3,1.2-0.3,1.7h11.9C1037.6,96.9,1037,95.4,1036.1,94.5z"/>
</g>
<g>
	<path class="st0" d="M1055.8,88.3v4.9h0.1c0.3-0.8,0.8-1.6,1.4-2.3c0.6-0.7,1.3-1.3,2-1.8c0.8-0.5,1.6-0.9,2.4-1.2
		c0.9-0.3,1.7-0.4,2.7-0.4c0.5,0,1,0.1,1.6,0.3v6.8c-0.3-0.1-0.8-0.1-1.2-0.2c-0.5-0.1-0.9-0.1-1.4-0.1c-1.3,0-2.5,0.2-3.4,0.7
		c-0.9,0.4-1.7,1.1-2.2,1.8c-0.6,0.8-1,1.7-1.2,2.7c-0.2,1-0.4,2.1-0.4,3.3v12h-7.3V88.3H1055.8z"/>
</g>
</svg>
