<svg id="FIBA" xmlns="http://www.w3.org/2000/svg" xmlns:xlink="http://www.w3.org/1999/xlink" viewBox="0 0 128 64"><defs><style>.cls-1{fill:#fff;}.cls-2{fill:#00953a;}.cls-2,.cls-3,.cls-5,.cls-6,.cls-8{fill-rule:evenodd;}.cls-3{fill:#ffa400;}.cls-4{fill:#ec0044;}.cls-5{fill:#717271;}.cls-6{fill:#0075c9;}.cls-7{fill:url(#linear-gradient);}.cls-8{fill:url(#linear-gradient-2);}.cls-9{fill:url(#Nuovo_campione_sfumatura_7);}.cls-10{fill:url(#Nuovo_campione_sfumatura_7-2);}.cls-11{fill:#1a171b;}.cls-12{fill:url(#radial-gradient);}</style><linearGradient id="linear-gradient" x1="54.24" y1="45.71" x2="54.24" y2="45.71" gradientUnits="userSpaceOnUse"><stop offset="0" stop-color="#00375a"/><stop offset="0.38" stop-color="#004f7d"/><stop offset="0.78" stop-color="#00659b"/><stop offset="1" stop-color="#006da7"/></linearGradient><linearGradient id="linear-gradient-2" x1="54.25" y1="45.7" x2="54.27" y2="45.7" xlink:href="#linear-gradient"/><radialGradient id="Nuovo_campione_sfumatura_7" cx="310.68" cy="267.27" r="0" gradientTransform="translate(-109.92 -74.05) scale(0.46 0.47)" gradientUnits="userSpaceOnUse"><stop offset="0" stop-color="#77787a"/><stop offset="0.7" stop-color="#1a171b"/><stop offset="1" stop-color="#4d4d4f"/></radialGradient><radialGradient id="Nuovo_campione_sfumatura_7-2" cx="268.24" cy="264.07" xlink:href="#Nuovo_campione_sfumatura_7"/><radialGradient id="radial-gradient" cx="290.49" cy="191.71" r="47.13" gradientTransform="translate(-109.92 -74.05) scale(0.46 0.47)" gradientUnits="userSpaceOnUse"><stop offset="0" stop-color="#fff"/><stop offset="0.42" stop-color="#fcfcfc"/><stop offset="0.77" stop-color="#f1f1f1"/><stop offset="1" stop-color="#e6e6e6"/></radialGradient></defs><title>fiba</title><rect class="cls-1" x="64.93" width="63.07" height="64"/><rect x="65.55" y="0.63" width="61.84" height="62.74"/><path class="cls-1" d="M72.36,48.75h0.7l1,4.54h0l1-4.54h0.85l0.94,4.54h0l1.05-4.54h0.68L77.26,54h-0.8l-1-4.54h0l-1,4.54h-0.8Z"/><path class="cls-1" d="M79.12,52.34c0,1,.27,1.23.73,1.23a0.65,0.65,0,0,0,.63-0.7h0.65a1.11,1.11,0,0,1-1.26,1.18c-0.77,0-1.37-.23-1.37-1.85,0-1.07.12-2,1.37-2,1,0,1.28.57,1.28,1.78v0.31h-2Zm1.41-.45c0-1.07-.29-1.19-0.72-1.19s-0.68.18-.68,1.19h1.41Z"/><path class="cls-1" d="M84.51,48.75h0.84L87,54H86.29l-0.37-1.25h-2L83.54,54H82.87Zm0.4,0.62h0l-0.81,2.79h1.65Z"/><path class="cls-1" d="M88.11,50.87h0a1,1,0,0,1,1.12-.62v0.62l-0.16,0-0.15,0a0.83,0.83,0,0,0-.82,1V54H87.52V50.32h0.59v0.55Z"/><path class="cls-1" d="M90,52.34c0,1,.27,1.23.73,1.23a0.65,0.65,0,0,0,.63-0.7H92a1.1,1.1,0,0,1-1.26,1.18c-0.77,0-1.37-.23-1.37-1.85,0-1.07.12-2,1.37-2,1,0,1.28.57,1.28,1.78v0.31H90Zm1.41-.45c0-1.07-.29-1.19-0.72-1.19S90,50.88,90,51.89h1.41Z"/><path class="cls-1" d="M94,54V48.75h1.68a1.17,1.17,0,0,1,1.15.54,1.43,1.43,0,0,1,.21.7,1.09,1.09,0,0,1-.89,1.24v0a1.11,1.11,0,0,1,1.06,1.25A1.34,1.34,0,0,1,95.69,54H94Zm0.66-3h1a0.81,0.81,0,0,0,0-1.63H94.68V51Zm0,2.45h0.93a0.88,0.88,0,0,0,1-.89,0.93,0.93,0,0,0-1.18-1h-0.7V53.4Z"/><path class="cls-1" d="M99.7,53.45h0a0.89,0.89,0,0,1-.91.6,1,1,0,0,1-1-1.2c0-1.11,1.07-1.16,1.89-1.14,0-.49,0-1-0.61-1a0.54,0.54,0,0,0-.57.65H97.87a1,1,0,0,1,1.22-1.1,1,1,0,0,1,1.17,1.1v1.76a5.73,5.73,0,0,0,.07.87H99.7V53.45Zm-1.32-.56a0.59,0.59,0,0,0,.57.67c0.36,0,.8-0.23.74-1.41C99.12,52.17,98.37,52.12,98.37,52.9Z"/><path class="cls-1" d="M102,54.05a1.07,1.07,0,0,1-1.24-1.19h0.67a0.59,0.59,0,0,0,.6.7,0.55,0.55,0,0,0,.62-0.56c0-.65-1.8-0.67-1.8-1.76a1,1,0,0,1,1.24-1,1,1,0,0,1,1.14,1h-0.65a0.51,0.51,0,0,0-.57-0.59,0.5,0.5,0,0,0-.56.49c0,0.64,1.8.63,1.8,1.75A1.08,1.08,0,0,1,102,54.05Z"/><path class="cls-1" d="M104.46,54h-0.58V48.75h0.58V51.9h0l1.1-1.58h0.72l-1.2,1.57L106.5,54h-0.74l-1.29-2.05h0V54Z"/><path class="cls-1" d="M107.19,52.34c0,1,.27,1.23.73,1.23a0.65,0.65,0,0,0,.63-0.7h0.65a1.11,1.11,0,0,1-1.26,1.18c-0.76,0-1.37-.23-1.37-1.85,0-1.07.12-2,1.37-2,1,0,1.29.57,1.29,1.78v0.31h-2Zm1.41-.45c0-1.07-.29-1.19-0.72-1.19s-0.68.18-.68,1.19h1.41Z"/><path class="cls-1" d="M110,50.32v-0.7l0.59-.27v1h0.79v0.45h-0.79V53a0.44,0.44,0,0,0,.54.53l0.26,0V54c-0.19,0-.38.06-0.58,0.06a0.65,0.65,0,0,1-.81-0.65v-2.6h-0.59V50.32H110Z"/><path class="cls-1" d="M112.53,54h-0.59V48.75h0.59v1.94h0a0.91,0.91,0,0,1,.79-0.44c1.17,0,1.19,1.05,1.19,2,0,1.61-.59,1.84-1.16,1.84a0.89,0.89,0,0,1-.83-0.51h0V54Zm0.66-.41c0.73,0,.73-0.8.73-1.35,0-1-.09-1.49-0.72-1.49s-0.68.78-.68,1.27S112.47,53.57,113.19,53.57Z"/><path class="cls-1" d="M116.9,53.45h0a0.89,0.89,0,0,1-.91.6,1,1,0,0,1-1-1.2c0-1.11,1.07-1.16,1.89-1.14,0-.49,0-1-0.61-1a0.54,0.54,0,0,0-.56.65h-0.64a1,1,0,0,1,1.22-1.1,1,1,0,0,1,1.17,1.1v1.76a6.11,6.11,0,0,0,.07.87H116.9V53.45Zm-1.32-.56a0.59,0.59,0,0,0,.57.67c0.36,0,.8-0.23.74-1.41C116.32,52.17,115.57,52.12,115.57,52.9Z"/><path class="cls-1" d="M118.9,54h-0.59V48.75h0.59V54Z"/><path class="cls-1" d="M120.34,54h-0.59V48.75h0.59V54Z"/><path class="cls-1" d="M80,13.71v4h5.27v3.5H80v7.74H76.26V11.39a1.11,1.11,0,0,1,1.3-1.32h8.72v3.63H80Z"/><path class="cls-1" d="M87.53,28.91V11.39a1.11,1.11,0,0,1,1.3-1.32h2.39V28.91H87.53Z"/><path class="cls-1" d="M100.46,15.56a2,2,0,0,1-2.16,2.29H96.7V13.26h1.61A2,2,0,0,1,100.46,15.56Zm3.76,8c0-2.55-1.35-3.77-2.34-4.11,0.88-.42,2.21-1.47,2.21-4.37,0-2.63-1.77-5-5.53-5H94.39a1.11,1.11,0,0,0-1.3,1.32V28.91h5.63C101.89,28.91,104.23,27.12,104.23,23.54Zm-3.71-.21a2.07,2.07,0,0,1-2.18,2.34H96.7V21h1.64A2.07,2.07,0,0,1,100.51,23.33Z"/><path class="cls-1" d="M112.92,19.06H109.5V15.19c0-.79.26-2.13,1.71-2.13s1.71,1.34,1.71,2.13v3.87Zm3.69,9.85V14.76a5.41,5.41,0,0,0-10.8,0V28.91h3.69V22.56h3.43v6.35h3.69Z"/><rect class="cls-1" width="63.08" height="64"/><rect x="0.62" y="0.63" width="61.84" height="62.74"/><path class="cls-1" d="M31.93,30.78a66.69,66.69,0,0,0,2,7.48,4.39,4.39,0,0,0,1,2.28,4.49,4.49,0,0,0,2,1.9c-0.23.13,0,.08,0,0.08l0.07,0L37.65,43c1.53,0.69,2.91.34,5,.23s5.7-2,5.7-2l0.08-.48c-4.28,2.06-5.07,1.91-6,2.16a7.45,7.45,0,0,1-5.13-.49l0.38-.15,2-3L41.32,36a56,56,0,0,0,3.25-8.13,42.79,42.79,0,0,0,1.56-7.18s0.26-2.64.21-2.9a23.66,23.66,0,0,0-.23-3.53l-0.6-.61a15.58,15.58,0,0,1,.31,3,38.89,38.89,0,0,1-.26,5,45.29,45.29,0,0,1-1.35,6,55.76,55.76,0,0,1-3.09,7.68,28.5,28.5,0,0,0-2,4s-1.41,2.15-2,2.89a5.17,5.17,0,0,1-2.39-3.28c-1.55-2.06-3.89-16.2-3.89-16.2l-0.42.08,1,5.43Z"/><path class="cls-1" d="M48.38,49.26a23.61,23.61,0,0,1-4.84-.93s-2.28-1-2.67-1.06S36.36,45,36.36,45H34.52L34,44a8.71,8.71,0,0,0-2.42-2.33,25.11,25.11,0,0,1-3.66-2.55l-0.44-.77A30.55,30.55,0,0,0,24,35.54c-0.9-.45-6.61-7.34-6.61-7.34s-1.52-3-2.17-3.43-2.13-4-2.33-4.43l0-.05-0.07.91,1,2.08,1.33,2.29a36.59,36.59,0,0,1,2.17,3.09c0.58,1,4.91,5.76,4.91,5.76l5.5,5,2.74,2,0.87,1,2.18,2.73,3.15,0.43L40,47.35s3.45,1.42,3.59,1.49,3.27,0.81,3.27.81l1.22,0.23S49.67,49.18,48.38,49.26Z"/><path class="cls-1" d="M22.16,44.38a2.14,2.14,0,0,0-2,.06l1.17,0.45,4.22,0.55,4,0.28a8.24,8.24,0,0,1,2.19.4c0.52,0.29.77-.48,0.77-0.48l-3.26-.45S23.36,44.87,22.16,44.38Z"/><path class="cls-2" d="M25.46,6.15a27.75,27.75,0,0,0-7.82,3.28s-2.36,2-2.58,2.24c0,0,4.21-3.12,8.45-3.57l0.19,0Z"/><path class="cls-3" d="M32.21,21.37l2.14-1.82,2.16-1.92,2.3-1.75,3-1.66,2.94-1.38,3.07-.95s-0.77-1.32-1.43-1.2-2.82.72-2.82,0.72-2.89,1.34-5.23.81,0.73-2.26.73-2.26l0.62-.1L41.12,8.6,42.64,9l0.88,0.4,0.24,0h0a5.19,5.19,0,0,0-2-2,5.1,5.1,0,0,0-4.07.59A4.9,4.9,0,0,1,35,8.58s-1.39-.35-0.77-0.69A28.28,28.28,0,0,1,37.38,6.8V6.66a4.32,4.32,0,0,0-3.3-1.11,3.75,3.75,0,0,0-2,.55l-1.39.7-0.92.56s-1.39,1.05-2.12.74S27.44,6.8,27.44,6.8a2.55,2.55,0,0,1,1.07-1l-0.43-.14L28,5.68l-1.15.09-1,.23a2.7,2.7,0,0,0-1.44.8,9.22,9.22,0,0,0-1.6,3c-0.36,1-1.64,3.31-3,3.87a1.59,1.59,0,0,1-1.93-.18,2.48,2.48,0,0,1-.3-0.61,1.53,1.53,0,0,0-1.1-1.05,2.94,2.94,0,0,0-3,1.32l-1.23,1.56s2,0,3.35,2.55c0,0,1,3.85,1.22,4.31a6.1,6.1,0,0,0,1.72,2.82c1.22,1.05,4,1.55,6.09,1.13S28.64,24.12,32.21,21.37Z"/><path class="cls-4" d="M56.21,41s-2,1.39-3.49.48S48.93,37.92,43.79,37c0,0-1.52-.3-1.57-1.06-0.08-1.19,1.55-2.1,2.87-2.33a9.58,9.58,0,0,1,3.62.33c0.52,0.15,4.34,1.52,4.54-.78s-0.6-5.62-8-9.13a74.47,74.47,0,0,0-13.76-5s-1.82-.41-1.17-1.59,4.81-.58,13.34,2.15l4.86,1.85s0.67,0.38.92-.15-0.6-1.14-1.17-1.52a38,38,0,0,0-6.08-2.66C39,15.93,31.47,14,31.47,14s-1.9-.43-1.55-1.09,1-1.34,6.76-.13a49.06,49.06,0,0,1,13.27,4.58,0.34,0.34,0,0,0,.4-0.06,0.47,0.47,0,0,0-.23-0.55,40.91,40.91,0,0,0-9-4.59c-4.16-1.29-5.16-1.55-5.16-1.55s-1.58-.42-1.41-1.2,3.1-.15,3.1-0.15,2.88,0.39,8.69,3.08a25.36,25.36,0,0,1,3.73,2.31s0.34,0.13.08-.19c0,0-2.76-2.21-3.91-3a15.67,15.67,0,0,0-5.84-2.79s-1-.29-0.55-0.52a1.87,1.87,0,0,1,.8-0.23,6.62,6.62,0,0,1,1.08.18,27.08,27.08,0,0,1,7.56,4.25A27,27,0,0,1,55,19.72,21.71,21.71,0,0,1,56.84,24a25.1,25.1,0,0,1,.85,4.52C58,31.54,58,36.08,57,39.1A8.4,8.4,0,0,1,56.21,41Z"/><path class="cls-3" d="M32.39,8.73a2.3,2.3,0,0,0,1.94.48c1-.31.47-1.4,0.24-1.66a6.29,6.29,0,0,0-5.39-2,18.6,18.6,0,0,0-2.29.27,4.69,4.69,0,0,1,3.5,1A14.66,14.66,0,0,1,32.39,8.73Z"/><path class="cls-3" d="M34.85,5.59A15.56,15.56,0,0,1,38,6.17a5.35,5.35,0,0,1,3.35,2.42c0.46,0.57.85,1.85-.2,1.94s-1.83-1.35-1.83-1.35L39,8.52A5.4,5.4,0,0,0,34.87,5.6h0Z"/><path class="cls-3" d="M44.37,10.43s0.55,1.29,1.34,1.28,0.42-.91.06-1.53a4.53,4.53,0,0,0-1.59-1.56c-0.67-.41-2-1-2-1l-0.4-.17a4.82,4.82,0,0,1,1.51,1.27C43.8,9.45,44.37,10.43,44.37,10.43Z"/><path class="cls-5" d="M6.94,41.36a23.84,23.84,0,0,0,4.23,7.49c3.24,4,4.28,4.15,4.28,4.15a5.17,5.17,0,0,0,1.17,1.14A23,23,0,0,0,19.76,56a12.81,12.81,0,0,0,4.72,1.6l-0.2-1.78-8.86-8.32L10.8,44.73,8.33,42.14Z"/><path class="cls-5" d="M8.65,36l1.82-2.56s0.59-2.2,1.82-1.46,1.9,3.21-.7,7c0,0-1.67,1.78-.88,3.51s1.41,2.78,3.14,2.31A15.72,15.72,0,0,0,18.4,43l6.37-4.69,3.88-3.16S29.94,34,31,34.83s-0.56,2.43-1,2.89a97.57,97.57,0,0,1-8.36,7.41l-1.3,1.14a1,1,0,0,0-.12,1.26,1,1,0,0,0,1.33,0s6.74-4.4,8.56-6.23S33.64,38,33.64,38s1.18-1.23,2.22-.42-0.21,2-.37,2.17l-3.63,4s-4.86,4.53-5.43,4.8-1.15,2.51.7,1.52a32.49,32.49,0,0,0,5.71-4.14c0.76-.81,3.72-3.79,3.72-3.79a1.38,1.38,0,0,1,1.76-.38C39.3,42.35,38,44,38,44l-2.93,3.42-2.68,2.6s-3,2.49-4.36,3.28,0.49,1.29.76,1.28H29.1a4.71,4.71,0,0,0,1.08-.4c0.56-.29,3.3-2.17,3.3-2.17l2.84-2.49s1-1.49,2.09-1,0.12,1.83-.18,2.25-1.84,2.17-1.84,2.17l-6,3.9a6,6,0,0,1-4.55,1,9.65,9.65,0,0,1-5.21-2.8L16.1,49.93a19.78,19.78,0,0,0-2.78-2.32,17.72,17.72,0,0,1-4.23-3.09,15.3,15.3,0,0,1-2-2.83S6.33,40,6.8,39,8.65,36,8.65,36Z"/><path class="cls-2" d="M17.79,9.36a22.2,22.2,0,0,0-2.8,2,28.38,28.38,0,0,0-4.7,5C9.4,17.65,6.15,21.79,5.38,30a21.59,21.59,0,0,0,.16,5.29s0.28,3,1.57,4.13a28.67,28.67,0,0,0,11.17,4.85,1.21,1.21,0,0,0,1.37-1C19.76,42.07,18,41.36,18,41.36a44.7,44.7,0,0,1-4.52-1.82,16,16,0,0,1-3.09-2c-2.11-1.76-2.2-3-1.82-3.59s1-.25,1.7,0l3.79,1.48,8.69,2.48s3.54,1.22,4.1-.32-1-2.19-1.64-2.42-7.1-2.39-10.88-4-4.12-1.62-3.89-3.23c0,0,.18-1,2.85-0.49,2.86,0.6,8.67,1.76,8.67,1.76l8,1.69s2.19,0.53,2.53-.76-1-2.06-2-2.4S21,24.88,21,24.88L15.8,23.52s-4.71-.55-3.21-2.59c0,0,.46-0.69,3.92-0.39A85.74,85.74,0,0,1,28,22.59c1.89,0.55,4.08.92,4.44-.46s-1-2-3-2.63a58.31,58.31,0,0,0-9.81-2.06C15.94,17.05,13.71,17,13.71,17s-1.64,0-1.72-.45a2.44,2.44,0,0,1,.35-1.63,12,12,0,0,1,2.49-3Z"/><path class="cls-6" d="M55.08,42L54,44.07c-1.46,3.2-3.47,3.83-3.47,3.83a9.34,9.34,0,0,0-1,.3,15.68,15.68,0,0,1-1,2.79,3.43,3.43,0,0,1,1-.53A6.43,6.43,0,0,0,52.73,48s0.76-.87.82-1,0.42-.83.42-0.83a13.11,13.11,0,0,0,1-2.05A5.22,5.22,0,0,0,55.08,42Z"/><path class="cls-6" d="M49,48.44l-1,3L48.56,51a15.68,15.68,0,0,0,1-2.79A4.2,4.2,0,0,0,49,48.44Z"/><path class="cls-6" d="M23.94,48.33s-0.09-1.48.92-1.77S26.42,47,26.66,48s1.08,3.57,1.08,3.57,1.15,3.49,3,4.8,2.78,0.37,2.58-.83-1.53-7.14-1.53-7.14l-1.23-6.76s-0.79-2.76,1-3.26c0,0,1.32-.54,1.94,1.43l1.18,4.1,1.44,4.94,0.8,2.83s0.56,3.29,1.94,3.08,1-2.32,1-3.56-0.64-7.4-.64-7.4L38.6,39.14l-0.56-4S37.52,33.25,39.18,33s2.23,2.2,2.23,2.2l1.27,5.57,1,5.3s0.47,3.6.47,4,0.26,2.66,1.15,2.62,1.59-1.86,1.59-1.86A18.42,18.42,0,0,0,47.46,47a58.27,58.27,0,0,0-.21-7.81c-0.41-3.83-1.34-4.53,0-5s2,1.51,2,1.51a29.11,29.11,0,0,1,1.4,5.3,32.91,32.91,0,0,1,.14,6.79c-0.15.83-.33,3.7-4.16,6.17a26.67,26.67,0,0,1-8.63,4c-2,.4-6.71,1.28-10.47.49a1,1,0,0,1-.5-0.37C26.84,57.62,23.88,51.31,23.94,48.33Z"/><path class="cls-6" d="M57,39.07c-2,.64-2.23,2.22-2.12,3.91a5.41,5.41,0,0,1-.63,2.72A28.37,28.37,0,0,0,55.64,43,31.09,31.09,0,0,0,57,39.07Z"/><line class="cls-7" x1="54.24" y1="45.71" x2="54.24" y2="45.71"/><polygon class="cls-8" points="54.25 45.71 54.27 45.69 54.25 45.71 54.25 45.71"/><path class="cls-9" d="M33.46,51.1"/><path class="cls-10" d="M13.88,49.6"/><path class="cls-10" d="M13.88,49.6"/><path class="cls-11" d="M42.09,7.42"/><path class="cls-11" d="M27.5,20.82"/><path class="cls-12" d="M28.48,15.93C25.2,20.55,27.09,29.4,27.09,29.4,30.76,49.18,37,58.17,37,58.17a0.78,0.78,0,0,0,1.13-.22,0.72,0.72,0,0,1-.6-0.13s-6-8.31-9.71-28.09c0,0-1.85-8.81,1.37-13.45l0,0a85.84,85.84,0,0,1,10.89,8s5.9,5.2,8.24,8.77c0,0,7,8.28,5.13,13.67a7.57,7.57,0,0,1-1.29,1.92A5.13,5.13,0,0,0,54.11,46c0.27-1.49.39-2.69-.8-6S47.13,29.51,42,24.89a65.14,65.14,0,0,0-12.28-9.22h0c1.23-1.41,3.3-1.89,4.69-2.24a22.84,22.84,0,0,1,14,1.94c6.49,3.14,7.67,7.18,8.1,8.22a19.25,19.25,0,0,1,.78,2.65,13,13,0,0,0-.62-3c-0.45-1.07-1.66-5.23-8.34-8.47a23.53,23.53,0,0,0-14.46-2c-1.43.36-3.57,0.86-4.83,2.31L29,15.26c-0.73-.4-1.49-0.79-2.29-1.17C31,9.46,34.41,7.74,37.3,7a7,7,0,0,1,4.42.38s0.91,0.43.93,0.43A5.84,5.84,0,0,0,40,6.54a8.7,8.7,0,0,0-3.2.08c-0.24.05-5.27,1.22-10.81,7.11l-0.57-.26c-0.59-.27-1.17-0.51-1.73-0.72a20.88,20.88,0,0,0,1.74-2.43,9.32,9.32,0,0,0,1.12-3.4c0.16-1.35.26-1.15,0.26-1.15h0.1v0a0.29,0.29,0,0,0-.31-0.17,0.46,0.46,0,0,0-.36.11s-0.41,1.7-.41,1.7a11.19,11.19,0,0,1-2.9,5.1c-5.84-2-9.95-.84-10.62,1.46A4.89,4.89,0,0,1,15,12.12c0.82-.12,3-0.72,7.47.85l0,0.06a56.59,56.59,0,0,1-4.62,3.74l-4.62,3.42a55,55,0,0,0-4.94,4.48,15.26,15.26,0,0,0-2.85,5A16.08,16.08,0,0,0,5,32.6a6.21,6.21,0,0,0,.45,2.21v-0.1C4.13,28.46,10,23.65,10,23.65c0.55-.55,2.47-2.18,2.47-2.18l3-2.24,2.66-1.89s2.19-1.6,3.15-2.35a22.48,22.48,0,0,0,1.87-1.74c0.71,0.28,1.48.61,2.3,1-0.67.74-1.34,1.54-2,2.42a54,54,0,0,0-8.56,15.76S10.64,43,14,51.25a6.83,6.83,0,0,0,3.55,3.48l-1-.66-1-.93-1-1.5-0.27-.73L13.9,49.58a18.07,18.07,0,0,1-.55-5.88,34.36,34.36,0,0,1,1.09-6.83,50.57,50.57,0,0,1,8.43-18.1c1.17-1.58,2.29-3,3.35-4.15q1.08,0.55,2.29,1.26l0,0.06"/></svg>